<svg xmlns="http://www.w3.org/2000/svg" width="800" height="550" viewBox="0 0 800 550">
  <rect width="800" height="550" fill="#11103A"/>
  <rect x="0" y="0" width="800" height="4" fill="#F2A900" opacity="0.7"/>
  <!-- étude de marché / analyse graphique -->
  <circle cx="400" cy="260" r="160" fill="none" stroke="#F2A900" stroke-width="1.5" opacity="0.2"/>
  <circle cx="400" cy="260" r="100" fill="none" stroke="#F2A900" stroke-width="1" opacity="0.15"/>
  <!-- secteurs camembert stylisés -->
  <path d="M400,260 L400,100 A160,160 0 0,1 538,202 Z" fill="#F2A900" opacity="0.25"/>
  <path d="M400,260 L538,202 A160,160 0 0,1 490,412 Z" fill="#F2A900" opacity="0.15"/>
  <path d="M400,260 L490,412 A160,160 0 0,1 220,360 Z" fill="#FAFAF8" opacity="0.06"/>
  <path d="M400,260 L220,360 A160,160 0 0,1 310,115 Z" fill="#F2A900" opacity="0.1"/>
  <path d="M400,260 L310,115 A160,160 0 0,1 400,100 Z" fill="#F2A900" opacity="0.2"/>
  <!-- légendes -->
  <rect x="100" y="420" width="12" height="12" fill="#F2A900" opacity="0.7"/>
  <text x="118" y="431" fill="#FAFAF8" font-family="Inter,Arial" font-size="11" opacity="0.5">Analyse</text>
  <text x="400" y="500" fill="#FAFAF8" font-family="Inter,Arial" font-size="13" font-weight="500" text-anchor="middle" opacity="0.5">Etudes, Diagnostics &amp; Business Intelligence</text>
</svg>
