<svg xmlns="http://www.w3.org/2000/svg" width="800" height="550" viewBox="0 0 800 550">
  <rect width="800" height="550" fill="#11103A"/>
  <rect x="0" y="0" width="800" height="4" fill="#F2A900" opacity="0.7"/>
  <!-- organigramme organisation -->
  <!-- noeud racine -->
  <rect x="320" y="80" width="160" height="50" rx="0" fill="#F2A900" opacity="0.25"/>
  <line x1="400" y1="130" x2="400" y2="170" stroke="#F2A900" stroke-width="1.5" opacity="0.4"/>
  <!-- niveau 2 -->
  <line x1="220" y1="170" x2="580" y2="170" stroke="#F2A900" stroke-width="1.5" opacity="0.4"/>
  <line x1="220" y1="170" x2="220" y2="210" stroke="#F2A900" stroke-width="1.5" opacity="0.4"/>
  <line x1="400" y1="170" x2="400" y2="210" stroke="#F2A900" stroke-width="1.5" opacity="0.4"/>
  <line x1="580" y1="170" x2="580" y2="210" stroke="#F2A900" stroke-width="1.5" opacity="0.4"/>
  <rect x="140" y="210" width="160" height="45" rx="0" fill="#FAFAF8" opacity="0.06"/>
  <rect x="320" y="210" width="160" height="45" rx="0" fill="#FAFAF8" opacity="0.06"/>
  <rect x="500" y="210" width="160" height="45" rx="0" fill="#FAFAF8" opacity="0.06"/>
  <!-- niveau 3 -->
  <line x1="220" y1="255" x2="220" y2="295" stroke="#F2A900" stroke-width="1" opacity="0.25"/>
  <line x1="170" y1="295" x2="270" y2="295" stroke="#F2A900" stroke-width="1" opacity="0.25"/>
  <rect x="130" y="295" width="80" height="35" rx="0" fill="#FAFAF8" opacity="0.04"/>
  <rect x="220" y="295" width="80" height="35" rx="0" fill="#FAFAF8" opacity="0.04"/>
  <text x="400" y="490" fill="#FAFAF8" font-family="Inter,Arial" font-size="13" font-weight="500" text-anchor="middle" opacity="0.5">Conseil en Gestion &amp; Organisation Interne</text>
</svg>
