<svg xmlns="http://www.w3.org/2000/svg" width="800" height="550" viewBox="0 0 800 550">
  <rect width="800" height="550" fill="#11103A"/>
  <rect x="0" y="0" width="800" height="4" fill="#F2A900" opacity="0.7"/>
  <!-- croissance / startup stylisée -->
  <!-- fusée stylisée -->
  <polygon points="400,100 370,200 400,180 430,200" fill="#F2A900" opacity="0.3"/>
  <rect x="385" y="180" width="30" height="80" fill="#F2A900" opacity="0.2"/>
  <!-- flamme -->
  <polygon points="400,260 385,300 400,285 415,300" fill="#F2A900" opacity="0.4"/>
  <!-- orbites -->
  <ellipse cx="400" cy="270" rx="180" ry="60" fill="none" stroke="#F2A900" stroke-width="1" opacity="0.12"/>
  <ellipse cx="400" cy="270" rx="260" ry="100" fill="none" stroke="#F2A900" stroke-width="1" opacity="0.08"/>
  <!-- étoiles -->
  <circle cx="200" cy="150" r="3" fill="#F2A900" opacity="0.4"/>
  <circle cx="600" cy="120" r="3" fill="#F2A900" opacity="0.4"/>
  <circle cx="150" cy="300" r="2" fill="#F2A900" opacity="0.3"/>
  <circle cx="650" cy="200" r="2" fill="#F2A900" opacity="0.3"/>
  <circle cx="550" cy="380" r="3" fill="#F2A900" opacity="0.3"/>
  <!-- graphique montée en flèche -->
  <polyline points="120,400 200,370 290,340 380,300 460,260 560,220 640,170" fill="none" stroke="#F2A900" stroke-width="2.5" opacity="0.5"/>
  <circle cx="640" cy="170" r="6" fill="#F2A900" opacity="0.7"/>
  <text x="400" y="490" fill="#FAFAF8" font-family="Inter,Arial" font-size="13" font-weight="500" text-anchor="middle" opacity="0.5">Accompagnement Entrepreneurial &amp; Developpement</text>
</svg>
